<svg width="20" height="20" viewBox="0 0 20 20" fill="none" xmlns="http://www.w3.org/2000/svg">
<path d="M20.0002 2.47089V17.5285L17.5314 20.0002H2.46893L0.000183105 17.5285V2.46991L2.47284 0.000183105H17.5285L20.0002 2.47089ZM1.37323 3.03925V16.9592L3.03925 18.6262H9.31366V1.37323H3.0412L1.37323 3.03925ZM10.6857 18.6262H16.9611L18.6252 16.9592V3.0412L16.9582 1.37323H10.6857V18.6262ZM4.64667 5.95233C4.7865 5.95243 4.91697 6.00582 5.01288 6.1037L6.02167 7.11151C6.11851 7.20848 6.17303 7.3388 6.17303 7.47968V12.1691C6.17303 12.2021 6.19472 12.2258 6.22772 12.2258H8.20917C8.24217 12.2258 8.26385 12.2465 8.26385 12.2795V13.4816C8.26375 13.5145 8.24209 13.5353 8.20917 13.5353H2.82538C2.79246 13.5353 2.77177 13.5145 2.77167 13.4816V12.2795C2.77167 12.2465 2.79238 12.2258 2.82538 12.2258H4.80682C4.83982 12.2258 4.86249 12.2021 4.86249 12.1691V7.52362C4.86249 7.38177 4.74253 7.26215 4.60272 7.2619H2.82538C2.79238 7.2619 2.77167 7.24119 2.77167 7.20819V6.00507C2.77181 5.97325 2.79249 5.95233 2.82538 5.95233H4.64667ZM15.8928 5.95135C16.0327 5.95138 16.1639 6.00572 16.2609 6.1037L17.2687 7.11053C17.3657 7.20853 17.4201 7.33868 17.4201 7.47968V12.007C17.42 12.1489 17.3657 12.2792 17.2687 12.3771L16.2609 13.384C16.1639 13.4819 16.0327 13.5343 15.8928 13.5344H13.4543C13.3146 13.5343 13.184 13.4817 13.0871 13.384L12.0783 12.3771C11.9814 12.2792 11.928 12.1489 11.9279 12.007V7.47968C11.9279 7.33873 11.9814 7.20852 12.0783 7.11053L13.0871 6.1037C13.184 6.00592 13.3145 5.95146 13.4543 5.95135H15.8928ZM13.4982 7.26288C13.3465 7.26311 13.2375 7.38179 13.2375 7.52362V11.965C13.2377 12.1047 13.3466 12.2255 13.4982 12.2258H15.8498C15.9896 12.2257 16.1084 12.1048 16.1086 11.965V7.52362C16.1085 7.38169 15.9897 7.26294 15.8498 7.26288H13.4982Z" fill="#001E28"/>
</svg>
