<svg width="20" height="20" viewBox="0 0 20 20" fill="none" xmlns="http://www.w3.org/2000/svg">
<g clip-path="url(#clip0_9506_59583)">
<path d="M20 0.000508447H17.7018V-9.15527e-05H0.0004V8.69971H0L0.0004 10.7523H1.3688V8.69971V1.36891H17.1054H17.7018H18.6312V2.12771H18.631L18.6312 10.7523H19.9996V2.73751H20V0.000508447Z" fill="#001E28"/>
<path d="M10 3.22617C5.84342 3.22617 2.47382 6.59597 2.47382 10.7524C2.47382 14.9088 5.84342 18.2786 10 18.2786C14.1566 18.2786 17.5262 14.9088 17.5262 10.7524C17.5262 6.59597 14.1566 3.22617 10 3.22617ZM14.6358 6.70157L13.9094 9.03517L13.0552 9.29197L10.6712 7.55957V6.69397L12.7492 5.24257C13.4704 5.60357 14.1102 6.10097 14.6358 6.70177V6.70157ZM10 4.59477C10.4008 4.59477 10.792 4.63397 11.1714 4.70717L10 5.52537L8.82862 4.70717C9.20801 4.63397 9.59922 4.59477 10 4.59477ZM7.25082 5.24237L9.32902 6.69377V7.55937L6.94362 9.29277L6.09122 9.03556L5.36462 6.70157C5.89002 6.10037 6.53002 5.60277 7.25122 5.24237H7.25082ZM4.41342 8.16217L4.75402 9.25596L3.93022 9.71916C4.02262 9.17216 4.18702 8.64996 4.41342 8.16217ZM5.87022 15.3198H6.66242L6.91782 16.0828C6.54182 15.8648 6.19042 15.6096 5.87022 15.3198ZM6.86742 13.9774H4.75422C4.26542 13.1844 3.95262 12.2716 3.86722 11.2936L5.63562 10.3004L6.56442 10.5804L7.47161 13.3728L6.86722 13.9774H6.86742ZM11.4476 16.7376C10.9832 16.8496 10.4988 16.91 10 16.91C9.50121 16.91 9.01701 16.8494 8.55262 16.7376L7.91342 14.8294L8.62962 14.113H11.3704L12.0866 14.8294L11.4476 16.7376ZM11.3378 12.8054H8.66221L7.83541 10.2606L10 8.68817L12.1646 10.2606L11.3378 12.8054ZM13.0824 16.0822L13.3378 15.3196H14.1298C13.8096 15.6092 13.4582 15.8646 13.0824 16.0822ZM15.2458 13.9774H13.133L12.5286 13.3728L13.4364 10.5786L14.3642 10.3L16.1328 11.2936C16.0476 12.2716 15.7346 13.1844 15.2458 13.9774ZM16.0698 9.71916L15.2464 9.25596L15.5868 8.16257C15.8132 8.65037 15.9774 9.17216 16.0698 9.71916Z" fill="#001E28"/>
</g>
<defs>
<clipPath id="clip0_9506_59583">
<rect width="20" height="20" fill="white"/>
</clipPath>
</defs>
</svg>
