<svg width="20" height="20" viewBox="0 0 20 20" fill="none" xmlns="http://www.w3.org/2000/svg">
<path d="M3.66803 6.82812C4.60703 6.00112 5.81744 5.50781 7.06744 5.50781C8.28839 5.50785 9.53465 5.96326 10.5606 6.99121C13.3254 9.75805 19.7093 16.1487 19.7383 16.1777L15.92 19.9971L12.7374 20L8.68756 15.9609C7.68268 16.9388 6.34158 17.4501 5.01373 17.4502C3.72273 17.4502 2.44311 16.9659 1.49811 15.9609C-0.37575 13.967 -0.54372 11.133 1.28912 9.16309L1.69147 8.76074L0.0137329 7.08008L1.96588 5.12402L3.66803 6.82812ZM7.06744 6.86426C6.07244 6.86426 5.09015 7.27709 4.37115 7.99609L2.24713 10.1221C0.979238 11.4871 1.06347 13.5203 2.48444 15.0322C3.12842 15.7171 4.02683 16.0928 5.01373 16.0928C6.0265 16.0927 7.02135 15.6911 7.74323 14.9893L9.64362 15L13.296 18.6436L15.3585 18.6416L17.8223 16.1768L11.7901 10.1387L8.79791 13.1328L6.87897 11.2119L9.87018 8.21777L9.6026 7.94922C8.70668 7.05229 7.72944 6.86429 7.06744 6.86426ZM20.0001 7.03516L15.1192 9.05859L14.6006 7.80566L19.4805 5.78223L20.0001 7.03516ZM17.8184 3.14258L14.0831 6.87988L13.1251 5.92285L16.8604 2.18457L17.8184 3.14258ZM14.2237 0.517578L12.2012 5.4043L10.9493 4.88574L12.9717 0L14.2237 0.517578Z" fill="#001E28"/>
</svg>
