<svg width="20" height="20" viewBox="0 0 20 20" fill="none" xmlns="http://www.w3.org/2000/svg">
<path d="M10.6866 2.76094H12.2335L14.4571 5.93086L15.1388 12.0988L17.339 14.299L16.3575 17.2414H13.0694C12.8943 18.7882 11.5939 20.0001 10.0001 20.0002C8.40716 20.0002 7.10487 18.7883 6.92978 17.2414H3.64072L2.6622 14.299L4.86044 12.0988L5.54306 5.93086L7.76669 2.76094H9.31259V0.000198364H10.6866V2.76094ZM8.33994 17.2414C8.50501 18.0243 9.16817 18.6262 10.0001 18.6262C10.832 18.6261 11.4962 18.0243 11.6602 17.2414H8.33994ZM6.87021 6.43282L6.17294 12.7316L4.23251 14.6701L4.63095 15.8674H15.3683L15.7667 14.6701L13.8272 12.7316L13.131 6.43282L11.5186 4.13496H8.48056L6.87021 6.43282ZM4.74911 1.34492C3.51819 1.73395 2.51304 2.57986 1.91806 3.72481C1.32516 4.86872 1.21271 6.17748 1.60263 7.40938L0.29306 7.82344C-0.207812 6.24259 -0.0625567 4.56286 0.69931 3.092C1.4623 1.62101 2.75307 0.534362 4.33505 0.0353546L4.74911 1.34492ZM15.6651 0.0353546C17.2461 0.534355 18.5369 1.621 19.3009 3.092C20.0638 4.56287 20.208 6.2426 19.7071 7.82246L18.3976 7.40938C18.7875 6.17747 18.6751 4.86872 18.0821 3.72481C17.4881 2.57983 16.482 1.73394 15.2511 1.34492L15.6651 0.0353546ZM5.5831 3.97285C4.4931 4.31785 3.88751 5.48637 4.23251 6.57637L2.92294 6.99043C2.64494 6.11243 2.72551 5.1795 3.14951 4.3625C3.5735 3.54651 4.28907 2.94324 5.16806 2.66524L5.5831 3.97285ZM14.8321 2.66524C15.7101 2.94324 16.4277 3.5465 16.8507 4.3625C17.2755 5.18039 17.3542 6.1126 17.0763 6.99043L15.7677 6.57637C16.1127 5.48637 15.5071 4.31785 14.4171 3.97285L14.8321 2.66524Z" fill="#001E28"/>
</svg>
