<svg width="20" height="20" viewBox="0 0 20 20" fill="none" xmlns="http://www.w3.org/2000/svg">
<path d="M16.3915 8.73271L15.1527 8.76611C14.7993 9.48971 14.3531 10.0389 13.9269 10.4457C14.2687 8.79151 14.2423 7.19333 13.8325 5.88094C13.4477 4.64855 12.4163 2.64257 9.68853 0.0853992L9.59753 0L8.40115 0.595794C8.90094 3.60876 7.51356 5.15195 6.04437 6.78573C5.73657 7.12813 5.43478 7.46433 5.16138 7.80272C3.68719 9.6097 3 11.3859 3 13.3919C3 16.1924 4.97558 18.7836 7.80995 19.6952C7.95315 19.7398 8.09915 19.761 8.24375 19.7958C8.27275 19.803 8.29895 19.8162 8.32835 19.8226C8.34835 19.8276 8.37095 19.8254 8.39115 19.83C8.85394 19.9308 9.31994 20 9.78713 20C10.3749 20 10.9415 19.9326 11.4533 19.8046C14.8731 19.0494 17.3553 15.949 17.3553 12.4319C17.3553 11.1255 17.0309 9.8811 16.3917 8.73271H16.3915ZM9.83473 18.4328C9.44434 18.5548 9.05554 18.5558 8.67134 18.4646C8.65234 18.4604 8.63374 18.4558 8.61474 18.4514C7.49196 18.1866 6.67916 17.1622 6.67916 15.9986C6.67916 15.5618 6.78756 15.1446 7.00256 14.7589L7.01496 14.7345C7.29036 14.1897 8.17835 13.0679 8.96454 12.1243C9.23694 12.9533 9.77053 13.5471 10.2053 14.0309C10.3377 14.1783 10.4681 14.3223 10.5887 14.4717C11.1319 15.1372 11.3739 15.7474 11.3739 16.4502C11.3739 17.3122 10.7237 18.1474 9.83473 18.4332V18.4328ZM12.3735 18.0066C12.6285 17.5294 12.7723 16.9974 12.7723 16.4498C12.7723 15.4174 12.4225 14.5079 11.6743 13.5903C11.5409 13.4249 11.3945 13.2619 11.2451 13.0955C10.5885 12.3649 10.0213 11.7341 10.2271 10.4933L9.01334 9.9161C8.74394 10.2215 6.37277 12.9215 5.77457 14.0911C5.44718 14.6839 5.28138 15.3254 5.28138 15.9986C5.28138 16.0558 5.29358 16.1106 5.29618 16.1674C4.73398 15.3434 4.39839 14.3875 4.39839 13.3919C4.39839 11.7027 4.96758 10.2515 6.24697 8.68371C6.50737 8.36132 6.79316 8.04452 7.08396 7.72012C8.28295 6.38774 9.71953 4.78955 9.88493 2.26038C11.5371 4.04056 12.2203 5.40935 12.4981 6.29774C12.9723 7.81652 12.8169 9.8395 12.0719 11.8469L12.9715 12.7449C13.0449 12.7179 14.4827 12.1651 15.6751 10.5805C15.8625 11.1757 15.9569 11.7949 15.9569 12.4315C15.9569 14.8509 14.5083 17.0138 12.3737 18.0062L12.3735 18.0066Z" fill="#001E28"/>
</svg>
