<svg width="20" height="20" viewBox="0 0 20 20" fill="none" xmlns="http://www.w3.org/2000/svg">
<path d="M16.1892 1.1392L12.6941 1.10013L8.25826 5.4372L10.1901 5.45893L13.2449 2.47213L15.6081 2.49853L17.6257 4.56253L17.5993 6.92573L13.326 11.1036V11.1035L12.5735 11.8393L11.8815 11.8315V11.8316L10.2103 11.8129L7.97666 9.5344L7.00012 10.4891L9.63012 13.1724L11.1928 13.1899L11.1925 13.1901L13.1177 13.2116V13.2113L13.1243 13.2115L18.9588 7.5068L18.9979 4.01173L16.1892 1.1392Z" fill="#001E28"/>
<path d="M6.75614 17.5279L4.39334 17.5009L2.37627 15.438L2.40894 13.0673L6.62534 8.94453L6.6252 8.94506L7.42747 8.16066L8.09974 8.16826V8.1676L9.7912 8.18653L12.0173 10.4585L12.0165 10.4672L12.0227 10.4673L13.0008 9.51093L10.3713 6.8272L8.80867 6.80973L8.8088 6.8096L6.8964 6.78786V6.78826L6.87667 6.78813L1.05054 12.4853L1.00214 15.9868L3.81227 18.8604L7.30694 18.8999L11.7427 14.5627L9.8108 14.5411L6.75614 17.5279Z" fill="#001E28"/>
</svg>
