<svg width="20" height="20" viewBox="0 0 20 20" fill="none" xmlns="http://www.w3.org/2000/svg">
<path d="M10.6742 20.001H9.30899V13.5703C9.52099 13.6003 9.73252 13.6357 9.95352 13.6357C10.2004 13.6357 10.4373 13.6005 10.6742 13.5625V20.001ZM5.46524 20H4.10001V0.0078125H5.46524V20ZM15.8061 19.9922H14.4408V0H15.8061V19.9922ZM9.95352 5.67188C11.7725 5.67194 13.2533 7.15076 13.2533 8.96973C13.2533 10.7917 11.7725 12.2704 9.95352 12.2705C8.13353 12.2705 6.65275 10.7917 6.65274 8.96973C6.65274 7.15073 8.13352 5.67188 9.95352 5.67188ZM9.95352 7.03613C8.88652 7.03613 8.01797 7.90373 8.01797 8.96973C8.01799 10.0377 8.88653 10.9062 9.95352 10.9062C11.0205 10.9062 11.8881 10.0377 11.8881 8.96973C11.8881 7.90377 11.0205 7.0362 9.95352 7.03613ZM10.6742 4.37793C10.4374 4.34096 10.2004 4.30664 9.95352 4.30664C9.73269 4.30665 9.52181 4.34113 9.30997 4.37012V0.00878906H10.6742V4.37793Z" fill="#001E28"/>
</svg>
