<svg width="20" height="20" viewBox="0 0 20 20" fill="none" xmlns="http://www.w3.org/2000/svg">
<rect width="20" height="20" rx="4" fill="white"/>
<path fill-rule="evenodd" clip-rule="evenodd" d="M15.76 10.1364C15.76 9.71094 15.7218 9.30185 15.6509 8.90912H10V11.23H13.2291C13.09 11.98 12.6673 12.6155 12.0318 13.0409V14.5464H13.9709C15.1055 13.5018 15.76 11.9637 15.76 10.1364Z" fill="#4285F4"/>
<path fill-rule="evenodd" clip-rule="evenodd" d="M10 15.9999C11.62 15.9999 12.9782 15.4626 13.9709 14.5463L12.0318 13.0408C11.4945 13.4008 10.8073 13.6135 10 13.6135C8.43727 13.6135 7.11455 12.5581 6.64273 11.1399H4.63818V12.6944C5.62546 14.6553 7.65455 15.9999 10 15.9999Z" fill="#34A853"/>
<path fill-rule="evenodd" clip-rule="evenodd" d="M6.64273 11.14C6.52273 10.78 6.45455 10.3955 6.45455 10C6.45455 9.60457 6.52273 9.22003 6.64273 8.86003V7.30548H4.63818C4.23182 8.11548 4 9.03184 4 10C4 10.9682 4.23182 11.8846 4.63818 12.6946L6.64273 11.14Z" fill="#FBBC05"/>
<path fill-rule="evenodd" clip-rule="evenodd" d="M10 6.38636C10.8809 6.38636 11.6718 6.68909 12.2936 7.28364L14.0145 5.56273C12.9755 4.59455 11.6173 4 10 4C7.65455 4 5.62546 5.34455 4.63818 7.30545L6.64273 8.86C7.11455 7.44182 8.43727 6.38636 10 6.38636Z" fill="#EA4335"/>
</svg>
