<svg width="20" height="21" viewBox="0 0 20 21" fill="none" xmlns="http://www.w3.org/2000/svg">
<path fill-rule="evenodd" clip-rule="evenodd" d="M18.4038 16.3336L13.3385 14.8141L12.9085 13.2637C14.1768 12.0129 15.1484 10.0608 15.1639 7.8542C15.1834 5.16842 14.3834 3.39346 14.1618 2.95472L14.408 0.999756H9.95313C8.38441 0.999756 7.15027 1.45058 6.28445 2.33848C5.17906 3.47345 4.67407 5.27967 4.74198 7.86086C4.80032 10.0866 5.80363 12.0529 7.08152 13.3007L6.66194 14.8141L1.59663 16.3336L0 17.9361V20.0474H20V17.9361L18.4038 16.3336Z" fill="white"/>
<path fill-rule="evenodd" clip-rule="evenodd" d="M11.1185 17.8081H8.81443L6.52656 15.5206L7.22029 15.3127L7.6532 13.7511C8.40277 14.3236 9.20692 14.656 9.95315 14.656C10.7331 14.656 11.5681 14.3102 12.3377 13.7161L12.7806 15.3127L13.4218 15.5052L11.1185 17.8081ZM5.4254 7.79577C5.41374 7.35203 5.4254 6.9437 5.44874 6.5508L9.00408 5.6629L11.8378 7.05453V5.7529L14.431 6.63454C14.464 7.0012 14.4835 7.38869 14.4806 7.8016C14.4552 11.3824 11.7586 13.9731 9.95322 13.9731C7.98785 13.9731 5.5129 11.1228 5.4254 7.79577ZM6.77397 2.76795C7.51645 2.0063 8.55643 1.63547 9.95307 1.63547H13.633L13.4567 3.04044L13.5117 3.13836C13.5188 3.15169 14.0738 4.16625 14.3409 5.88288L11.1539 4.79832V5.95788L9.08142 4.93874L5.51441 5.82955C5.68566 4.47625 6.09857 3.46085 6.77397 2.76795ZM18.4038 16.286L13.3385 14.7664L12.9085 13.2161C14.1768 11.9653 15.1484 10.0132 15.1639 7.80659C15.1834 5.12081 14.3834 3.34585 14.1618 2.90711L14.408 0.952148H9.95313C8.38441 0.952148 7.15027 1.40297 6.28445 2.29087C5.17906 3.42585 4.67407 5.23206 4.74198 7.81326C4.80032 10.039 5.80363 12.0053 7.08152 13.2531L6.66194 14.7664L1.59663 16.286L0 17.8885V19.9998H0.683736V18.1714L1.95871 16.891L5.78321 15.7435L8.53191 18.4909H11.4014L14.1655 15.7281L18.0417 16.891L19.3163 18.1714V19.9998H20V17.8885L18.4038 16.286Z" fill="#555E61"/>
</svg>
