<svg width="32" height="32" viewBox="0 0 32 32" fill="none" xmlns="http://www.w3.org/2000/svg">
<path fill-rule="evenodd" clip-rule="evenodd" d="M14.9334 4.37331H11.7868C10.0489 4.37331 8.64011 5.78212 8.64011 7.51998C8.64011 9.25783 10.0489 10.6666 11.7868 10.6666H14.9334V4.37331ZM14.9334 2.23998H17.0668H20.2134C23.1296 2.23998 25.4933 4.6039 25.4933 7.51998C25.4933 9.24081 24.6703 10.7694 23.3961 11.7333C24.6703 12.6973 25.4933 14.2258 25.4933 15.9467C25.4933 18.8627 23.1296 21.2267 20.2134 21.2267C19.0344 21.2267 17.9456 20.8402 17.0668 20.187V21.2267V24.3733C17.0668 27.2894 14.7028 29.6533 11.7868 29.6533C8.8707 29.6533 6.50677 27.2894 6.50677 24.3733C6.50677 22.6524 7.32999 21.1239 8.6041 20.16C7.32999 19.196 6.50677 17.6675 6.50677 15.9467C6.50677 14.2258 7.33001 12.6973 8.60414 11.7333C7.33001 10.7694 6.50677 9.24081 6.50677 7.51998C6.50677 4.6039 8.8707 2.23998 11.7868 2.23998H14.9334ZM17.0668 4.37331V10.6666H20.2134C21.9514 10.6666 23.36 9.25783 23.36 7.51998C23.36 5.78212 21.9514 4.37331 20.2134 4.37331H17.0668ZM11.7868 19.0933H14.9334V15.9548V15.9467V15.9386V12.8H11.7868C10.0489 12.8 8.64011 14.2088 8.64011 15.9467C8.64011 17.6804 10.0422 19.0866 11.7743 19.0933L11.7868 19.0933ZM8.64011 24.3733C8.64011 22.6396 10.0422 21.2334 11.7743 21.2266L11.7868 21.2267H14.9334V24.3733C14.9334 26.1111 13.5246 27.52 11.7868 27.52C10.0489 27.52 8.64011 26.1111 8.64011 24.3733ZM17.0668 15.9404C17.0702 14.2054 18.4777 12.8 20.2134 12.8C21.9514 12.8 23.36 14.2088 23.36 15.9467C23.36 17.6845 21.9514 19.0933 20.2134 19.0933C18.4777 19.0933 17.0702 17.6879 17.0668 15.9529V15.9404Z" fill="white"/>
</svg>
