<svg width="20" height="20" viewBox="0 0 20 20" fill="none" xmlns="http://www.w3.org/2000/svg">
<g clip-path="url(#clip0_9506_59845)">
<path d="M17.5291 1.38025H2.47093L0 3.85118V16.1488L2.47093 18.6197H17.5292L20.0001 16.1488V3.85118L17.5292 1.38025H17.5291ZM18.6329 15.583L16.9633 17.2526H3.03667L1.36707 15.583V4.41692L3.03667 2.74732H16.9633L18.6329 4.41692V15.5829V15.583Z" fill="#001E28"/>
<path d="M5.26213 11.8052C5.2392 11.8052 5.22413 11.79 5.22413 11.7672V8.31653C5.22413 8.24813 5.186 8.1572 5.14053 8.11133L4.35773 7.32853C4.31186 7.28307 4.22093 7.24493 4.15253 7.24493H2.792C2.76906 7.24493 2.754 7.26013 2.754 7.28293V8.15707C2.754 8.1796 2.7692 8.19507 2.792 8.19507H4.08413C4.19026 8.19507 4.27413 8.27867 4.27413 8.38507V11.7669C4.27413 11.7899 4.25866 11.8049 4.23613 11.8049H2.792C2.76906 11.8049 2.754 11.8201 2.754 11.8429V12.7168C2.754 12.7397 2.7692 12.7549 2.792 12.7549H6.70626C6.7288 12.7549 6.744 12.7397 6.744 12.7168V11.8429C6.744 11.8201 6.7288 11.8049 6.70626 11.8049H5.26213V11.8052Z" fill="#001E28"/>
<path d="M12.3711 7.2908C12.3863 7.26787 12.3711 7.24493 12.3408 7.24493H11.2919C11.2691 7.24493 11.2464 7.26013 11.2387 7.2752L10.1291 9.49467C10.1213 9.50987 10.0987 9.52507 10.0759 9.52507H9.96199C9.93906 9.52507 9.91613 9.50987 9.90879 9.49467L8.79919 7.2752C8.79146 7.26 8.76866 7.24493 8.74599 7.24493H7.69706C7.66679 7.24493 7.65159 7.26787 7.66679 7.2908L9.04986 9.95053C9.06506 9.97333 9.06506 10.0189 9.04986 10.0417L7.66679 12.7096C7.65159 12.7321 7.66679 12.7551 7.69706 12.7551H8.74599C8.76853 12.7551 8.79146 12.7399 8.79919 12.7247L9.90879 10.5052C9.91613 10.49 9.93906 10.4749 9.96199 10.4749H10.0759C10.0988 10.4749 10.1213 10.4901 10.1291 10.5052L11.2387 12.7247C11.2464 12.7399 11.2691 12.7551 11.2919 12.7551H12.3408C12.3711 12.7551 12.3863 12.7321 12.3711 12.7096L10.988 10.0417C10.9725 10.0188 10.9725 9.97333 10.988 9.95053L12.3711 7.2908Z" fill="#001E28"/>
<path d="M16.1747 7.24493H13.2943C13.2713 7.24493 13.2563 7.26013 13.2563 7.28293V8.15707C13.2563 8.1796 13.2715 8.19507 13.2943 8.19507H16.1063C16.2127 8.19507 16.2963 8.27867 16.2963 8.38507V9.00827C16.2963 9.03867 16.2733 9.07667 16.2508 9.09187L13.3549 10.9613C13.3017 10.9993 13.2563 11.0829 13.2563 11.1513V12.7171C13.2563 12.74 13.2715 12.7552 13.2943 12.7552H17.2084C17.2309 12.7552 17.2461 12.74 17.2461 12.7171V11.8432C17.2461 11.8204 17.2309 11.8052 17.2084 11.8052H14.2441C14.2216 11.8052 14.2061 11.79 14.2061 11.7672V11.5469C14.2061 11.5163 14.2291 11.4783 14.252 11.4631L17.1475 9.58587C17.2007 9.548 17.2461 9.46427 17.2461 9.39587V8.31667C17.2461 8.24827 17.2084 8.15733 17.1625 8.11147L16.3797 7.32867C16.3343 7.2832 16.2429 7.24507 16.1745 7.24507L16.1747 7.24493Z" fill="#001E28"/>
</g>
<defs>
<clipPath id="clip0_9506_59845">
<rect width="20" height="20" fill="white"/>
</clipPath>
</defs>
</svg>
