<svg width="20" height="20" viewBox="0 0 20 20" fill="none" xmlns="http://www.w3.org/2000/svg">
<path d="M13.7931 6.93457C13.3241 6.95657 12.8659 7.02384 12.424 7.13184V2.13281L11.5216 3.03613H10.5548L8.9679 1.4502L7.38098 3.03711L6.41614 3.03613L4.82922 1.4502L3.24329 3.03613H2.27649L1.37317 2.13281V18.6279H8.49524C8.9082 19.1469 9.39185 19.6052 9.93079 19.9941H0.690552L0.00012207 20L0.00695801 0L1.17297 0.000976562L2.75891 1.58691L4.34583 0.000976562H5.31165L6.89856 1.58691L8.48547 0L9.45227 0.000976562L11.0382 1.58691L12.6251 0.000976562L13.7911 0L13.7931 6.93457ZM14.1427 8.2832C17.3717 8.2832 20.0001 10.9097 20.0001 14.1387C20 17.3665 17.3716 19.9932 14.1427 19.9932C10.9138 19.9932 8.28543 17.3665 8.28528 14.1387C8.28528 10.9097 10.9137 8.28321 14.1427 8.2832ZM14.1427 9.64941C11.6657 9.64943 9.65149 11.6627 9.65149 14.1387C9.65164 16.6135 11.6658 18.6279 14.1427 18.6279C16.6186 18.6279 18.6338 16.6135 18.6339 14.1387C18.6339 11.6627 16.6187 9.64941 14.1427 9.64941ZM14.8263 13.4561H16.5568V14.8203H13.4591V10.6533H14.8263V13.4561ZM4.82825 13.1035V14.4834H3.44836V13.1035H4.82825ZM4.82825 11.7256H3.44836V10.3457H4.82825V11.7256ZM4.82825 8.9668H3.44836V7.58789H4.82825V8.9668ZM4.82825 6.20703H3.44836V4.82812H4.82825V6.20703Z" fill="#001E28"/>
</svg>
