<svg width="20" height="20" viewBox="0 0 20 20" fill="none" xmlns="http://www.w3.org/2000/svg">
<path d="M7.58615 12.3004L7.06174 13.5621L3.81564 12.2164C4.6267 14.8973 7.11226 16.8082 10.0022 16.8082C12.7282 16.8082 15.1769 15.0861 16.0949 12.5221L17.3811 12.982C16.2691 16.089 13.3032 18.1754 10.0022 18.1754C6.57219 18.1754 3.61352 15.9532 2.57053 12.8082L1.26291 15.9644L0.000213623 15.441L1.69943 11.3394H1.69846L1.90256 10.8492L2.22189 10.0787L7.58615 12.3004ZM9.99826 2.4996C13.4283 2.4996 16.3879 4.72574 17.4309 7.86874L18.7375 4.71249L20.0002 5.23593L17.7795 10.5973L12.4153 8.37656L12.9387 7.11484L16.1848 8.45956C15.3738 5.77756 12.8883 3.86679 9.99826 3.86679C7.27336 3.8669 4.82348 5.59 3.90451 8.15292L2.61838 7.69296C3.73135 4.58704 6.69736 2.49971 9.99826 2.4996Z" fill="#001E28"/>
</svg>
