<svg width="20" height="20" viewBox="0 0 20 20" fill="none" xmlns="http://www.w3.org/2000/svg">
<path fill-rule="evenodd" clip-rule="evenodd" d="M15.9077 5.913L14.1672 4.17407L10.3054 4.77559V0.076355H6.65956L4.17025 1.73437L2.53513 13.0962L0.920628 14.7092C-0.283276 15.9142 -0.283276 17.8667 0.920628 19.0718C1.5052 19.6613 2.29959 19.9951 3.12979 20C3.94811 19.9938 4.72971 19.6594 5.29925 19.0718L6.82215 17.5504L18.355 15.8939L19.9451 13.4252V9.69468H15.3054L15.9077 5.913ZM5.53131 2.55422L7.14582 1.4046H8.97788V5.41147L4.51376 12.8924L4.1191 12.4939L5.53131 2.55422ZM4.47483 18.0916C4.15903 18.4133 3.72716 18.5946 3.27635 18.5946C2.82555 18.5946 2.39367 18.4133 2.07788 18.0916C1.4147 17.418 1.4147 16.337 2.07788 15.6634L3.75727 13.9672L6.1588 16.3924L4.47483 18.0916ZM6.34429 14.6344L5.56567 13.8489L10.1405 6.17865L13.7504 5.61071L14.4954 6.36338L13.9321 10.0145L6.34429 14.6344ZM18.5496 11.0687V12.9557L17.5344 14.587L7.69849 16.0122L7.30078 15.6099L14.7138 11.0687H18.5496Z" fill="#001E28"/>
</svg>
