<svg width="20" height="20" viewBox="0 0 20 20" fill="none" xmlns="http://www.w3.org/2000/svg">
<path d="M15.2716 15.8008C16.8775 15.8008 17.7156 16.6563 18.3888 17.373C18.8934 17.9105 19.3131 18.4055 20.0002 18.5498V19.9248C18.7162 19.7607 17.9871 18.9526 17.3878 18.3145C16.7711 17.6572 16.2831 17.1758 15.2716 17.1758C14.2603 17.1758 13.7722 17.6572 13.1554 18.3145C12.4806 19.032 11.6442 19.9248 10.0382 19.9248C8.43228 19.9248 7.5943 19.032 6.92105 18.3145C6.30351 17.6572 5.81451 17.1758 4.80386 17.1758C3.79322 17.1758 3.30517 17.6563 2.68765 18.3135C2.08918 18.9516 1.35953 19.7597 0.0763245 19.9238V18.5498C0.763281 18.4055 1.18216 17.9106 1.68668 17.374C2.36072 16.6572 3.19547 15.8018 4.80386 15.8018C6.41209 15.8018 7.25183 16.6563 7.92203 17.373C8.53882 18.0303 9.02755 18.5498 10.0382 18.5498C11.0489 18.5498 11.5369 18.0303 12.1544 17.373C12.8292 16.6563 13.6658 15.8008 15.2716 15.8008ZM10.0382 0C12.0425 2.18465e-05 13.9647 0.796627 15.382 2.21387C16.7991 3.63111 17.5959 5.55341 17.5959 7.55762C17.5957 11.7312 14.2118 15.1142 10.0382 15.1143C5.86461 15.1143 2.48082 11.7312 2.48062 7.55762C2.48062 3.38386 5.86448 0 10.0382 0ZM7.965 11.4023C7.76429 12 7.65063 12.6239 7.62808 13.2539C8.66285 13.6923 9.7977 13.8398 10.9103 13.6816H10.9132C9.8009 13.1063 8.80185 12.334 7.965 11.4023ZM9.90738 8.52148C9.39796 8.95642 8.95865 9.46749 8.60464 10.0361C9.7113 11.4396 11.21 12.4825 12.9103 13.0332C13.7172 12.6076 14.4212 12.0105 14.9718 11.2832L14.9728 11.2803C14.1648 11.1782 13.3772 10.9519 12.6378 10.6104C11.5855 10.1229 10.6528 9.40999 9.90738 8.52148ZM9.26578 4.67773C7.06273 5.96781 5.43549 8.04872 4.65152 10.5938C5.06903 11.3325 5.63398 11.9782 6.3107 12.4902L6.31168 12.4912C6.57828 10.3721 7.69327 8.45186 9.40152 7.16992C9.51672 6.33837 9.47072 5.49183 9.26578 4.67773ZM13.2404 2.27441C13.6286 3.10454 13.9245 3.97527 14.1222 4.87012C14.4771 6.46347 14.4803 8.11516 14.132 9.70996L14.1339 9.70703C14.6529 9.85927 15.1892 9.94616 15.7296 9.9668C16.9233 7.14027 15.8638 3.86566 13.2404 2.27441ZM11.2531 1.49414C10.5708 1.35809 9.8699 1.33747 9.18082 1.43359H9.18375C9.70372 2.10465 10.1136 2.8549 10.3966 3.65527C10.8154 4.84913 10.9414 6.12626 10.7638 7.37891C11.3204 8.11796 12.0275 8.73048 12.839 9.1748C13.0935 7.84738 13.0732 6.48139 12.7794 5.16211C12.4897 3.85944 11.973 2.61781 11.2531 1.49414ZM7.71402 1.83008C5.02022 2.92249 3.45154 5.74458 3.94449 8.60938L3.94547 8.61035C4.96208 6.39597 6.65654 4.56104 8.78336 3.37207C8.5028 2.80967 8.14217 2.29018 7.71402 1.83008Z" fill="#001E28"/>
</svg>
