<svg width="20" height="20" viewBox="0 0 20 20" fill="none" xmlns="http://www.w3.org/2000/svg">
<path fill-rule="evenodd" clip-rule="evenodd" d="M11.0253 17.1179H8.91323L6.81602 15.0211L7.45194 14.8305L7.84878 13.399C8.53588 13.9238 9.27302 14.2286 9.95707 14.2286C10.6721 14.2286 11.4375 13.9116 12.1429 13.3669L12.5489 14.8305L13.1367 15.007L11.0253 17.1179ZM5.80663 7.94001C5.79594 7.53324 5.80663 7.15895 5.82802 6.79878L9.08708 5.98487L11.6846 7.26054V6.06737L14.0618 6.87555C14.092 7.21165 14.1099 7.56685 14.1073 7.94535C14.084 11.2277 11.6121 13.6026 9.95713 13.6026C8.15554 13.6026 5.88684 10.9898 5.80663 7.94001ZM7.04281 3.33117C7.72343 2.63299 8.67674 2.29307 9.95699 2.29307H13.3303L13.1687 3.58096L13.2191 3.67071C13.2256 3.68294 13.7343 4.61295 13.9792 6.18653L11.0577 5.19235V6.25528L9.15798 5.32106L5.88822 6.13764C6.0452 4.89711 6.4237 3.96633 7.04281 3.33117ZM17.7035 15.7227L13.0603 14.3298L12.6661 12.9086C13.8287 11.762 14.7194 9.97266 14.7335 7.94992C14.7515 5.48796 14.0182 3.86091 13.815 3.45873L14.0407 1.66669H9.95704C8.51905 1.66669 7.38776 2.07994 6.59409 2.89385C5.58081 3.93424 5.11791 5.58994 5.18016 7.95603C5.23363 9.99634 6.15334 11.7987 7.32474 12.9426L6.94013 14.3298L2.29692 15.7227L0.833344 17.1916V20H1.4601V17.451L2.62883 16.2773L6.13462 15.2254L8.65426 17.7439H11.2847L13.8184 15.2113L17.3716 16.2773L18.5399 17.451V20H19.1667V17.1916L17.7035 15.7227Z" fill="#555E61"/>
</svg>
