<svg width="20" height="20" viewBox="0 0 20 20" fill="none" xmlns="http://www.w3.org/2000/svg">
<path fill-rule="evenodd" clip-rule="evenodd" d="M18.3333 16.9045L12.2329 15.1419V14.2287C13.0762 14.063 13.7375 13.9401 14.4108 13.8146C15.0221 13.7013 15.6508 13.5842 16.4567 13.4286L16.7333 13.374V13.0916C16.7333 8.93799 15.3208 1.12838 10.0104 0.960121V0.952148C9.98083 0.952148 9.95292 0.955925 9.92375 0.956344C9.895 0.955925 9.86708 0.952148 9.8375 0.952148V0.960121C4.52667 1.12838 3.11417 8.93799 3.11417 13.0916V13.374L3.39083 13.4286C4.1975 13.5847 4.82708 13.7013 5.43833 13.8146C6.15583 13.9489 6.85333 14.0785 7.78042 14.2611V15.2379L1.66667 16.9045L0.238095 18.3331L0 19.9998H20L19.7619 18.3331L18.3333 16.9045Z" fill="white"/>
<path fill-rule="evenodd" clip-rule="evenodd" d="M11.8853 18.2538H8.08193L6.12235 16.2513L8.22818 15.7103L8.48068 14.4983C8.91568 14.7453 9.41943 14.894 10.0148 14.894C10.5819 14.894 11.0903 14.762 11.5419 14.5098L11.7919 15.7103L13.8544 16.2419L11.8853 18.2538ZM6.68387 7.35171L7.15221 6.86196C9.42054 7.80213 11.5701 7.80213 12.7764 7.69273L13.3101 8.47649C13.1522 11.115 12.4472 14.1966 10.0151 14.1966C7.16804 14.1966 6.70012 9.97435 6.68387 7.35171ZM5.56291 13.3662C5.02499 13.2645 4.47332 13.1598 3.79999 13.0278C3.85999 8.95425 5.19541 1.74186 9.92374 1.65425C14.6525 1.74186 15.9879 8.95425 16.0479 13.0278C15.375 13.1594 14.8233 13.2645 14.2862 13.3658C13.7104 13.4748 13.1471 13.5816 12.4696 13.7154C13.345 12.6449 13.8658 10.8594 13.9987 8.39528L14.005 8.27562L13.1079 6.95596L12.9062 6.97819C11.7804 7.10254 9.54249 7.15511 7.20499 6.12776L6.98957 6.03289L6.00041 7.0675V7.21024C6.00041 9.21366 6.25832 12.1611 7.60124 13.7598C6.82541 13.6055 6.19832 13.4867 5.56291 13.3662ZM18.3983 16.6927L12.3713 15.1389L12.2329 14.4739C13.0763 14.3051 13.7375 14.1799 14.4108 14.0521C15.0221 13.9368 15.6508 13.8175 16.4567 13.659L16.7333 13.6034V13.3158C16.7333 9.08548 15.3208 1.13164 10.0104 0.960268V0.952148C9.98083 0.952148 9.95292 0.955995 9.92375 0.956422C9.895 0.955995 9.86708 0.952148 9.8375 0.952148V0.960268C4.52667 1.13164 3.11417 9.08548 3.11417 13.3158V13.6034L3.39083 13.659C4.1975 13.818 4.82708 13.9368 5.43833 14.0521C6.15583 14.1889 6.85333 14.321 7.78042 14.5068L7.64875 15.1389L1.60125 16.6927L0 18.3359V19.9998H0.682917V18.6239L1.95125 17.3222L5.35 16.4492L7.79875 18.9513H12.1683L14.5938 16.4735L14.5404 16.4184L18.0479 17.3222L19.3167 18.6239L19.3162 19.9998H20V18.3359L18.3983 16.6927Z" fill="#555E61"/>
</svg>
