<svg width="20" height="20" viewBox="0 0 20 20" fill="none" xmlns="http://www.w3.org/2000/svg">
<g clip-path="url(#clip0_9506_59435)">
<path d="M13.7309 16.9727H12.3647C12.3647 13.5106 9.55175 10.6937 6.09375 10.6937V9.32672C9.55175 9.32672 12.3647 6.50998 12.3647 3.04767H13.7309C13.7309 6.50978 16.5443 9.32672 20.0023 9.32672V10.6937C16.5443 10.6937 13.7309 13.5104 13.7309 16.9727Z" fill="#0033FF"/>
<path d="M4.7442 20H3.378C3.378 18.1345 1.8628 16.6171 0 16.6171V15.2501C1.8628 15.2501 3.378 13.7327 3.378 11.8672H4.7442C4.7442 13.7327 6.2598 15.2501 8.1226 15.2501V16.6171C6.2598 16.6171 4.7442 18.1345 4.7442 20Z" fill="#0033FF"/>
<path d="M6.19553 8.13274H4.82933C4.82933 6.26725 3.31373 4.74985 1.45093 4.74985V3.38289C3.31373 3.38289 4.82933 1.86549 4.82933 0H6.19553C6.19553 1.86549 7.71113 3.38289 9.57393 3.38289V4.74985C7.71113 4.74985 6.19553 6.26725 6.19553 8.13274Z" fill="#0033FF"/>
</g>
<defs>
<clipPath id="clip0_9506_59435">
<rect width="20" height="20" fill="white"/>
</clipPath>
</defs>
</svg>
