<svg width="20" height="20" viewBox="0 0 20 20" fill="none" xmlns="http://www.w3.org/2000/svg">
<path fill-rule="evenodd" clip-rule="evenodd" d="M11.7283 17.1301H8.24186L6.44558 15.3403L8.37592 14.8568L8.60738 13.7736C9.00613 13.9943 9.4679 14.1272 10.0137 14.1272C10.5335 14.1272 10.9995 14.0092 11.4135 13.7839L11.6427 14.8568L13.5333 15.3319L11.7283 17.1301ZM6.96012 7.3863L7.38943 6.94859C9.46873 7.78887 11.4392 7.78887 12.5449 7.69109L13.0342 8.39157C12.8894 10.7497 12.2432 13.5039 10.0138 13.5039C7.40394 13.5039 6.97502 9.73029 6.96012 7.3863ZM5.93273 12.7618C5.43964 12.6709 4.93394 12.5773 4.31672 12.4593C4.37172 8.81858 5.59585 2.3725 9.93016 2.2942C14.2648 2.3725 15.489 8.81858 15.544 12.4593C14.9271 12.5769 14.4214 12.6709 13.9291 12.7614C13.4013 12.8588 12.8849 12.9543 12.2638 13.0738C13.0663 12.117 13.5437 10.5213 13.6656 8.31899L13.6713 8.21205L12.849 7.0326L12.6641 7.05246C11.6321 7.16361 9.58068 7.21059 7.43797 6.29239L7.24051 6.2076L6.33377 7.13229V7.25986C6.33377 9.05042 6.57019 11.6847 7.8012 13.1135C7.09002 12.9757 6.51519 12.8695 5.93273 12.7618ZM17.6985 15.7348L12.1737 14.3461L12.0469 13.7518C12.8199 13.6009 13.4261 13.489 14.0433 13.3748C14.6036 13.2717 15.1799 13.1651 15.9186 13.0234L16.1722 12.9738V12.7167C16.1722 8.93585 14.8774 1.8271 10.0096 1.67394V1.66669C9.98244 1.66669 9.95685 1.67012 9.93011 1.67051C9.90376 1.67012 9.87817 1.66669 9.85105 1.66669V1.67394C4.98279 1.8271 3.688 8.93585 3.688 12.7167V12.9738L3.94161 13.0234C4.68105 13.1655 5.25817 13.2717 5.81848 13.3748C6.47619 13.497 7.11557 13.6151 7.96539 13.7812L7.8447 14.3461L2.30116 15.7348L0.833344 17.2034V20H1.45935V17.4609L2.62199 16.2975L5.73751 15.5171L7.9822 17.7534H11.9876L14.2109 15.5389L14.1621 15.4896L17.3773 16.2975L18.5403 17.4609L18.5399 20H19.1667V17.2034L17.6985 15.7348Z" fill="#555E61"/>
</svg>
