<svg width="20" height="20" viewBox="0 0 20 20" fill="none" xmlns="http://www.w3.org/2000/svg">
<path d="M10.047 0C15.5852 0 19.9998 4.58872 19.9953 9.96582C19.9952 16.3751 14.768 19.8974 14.7287 19.9238H9.69449V17.0225C8.36085 18.8472 6.23685 19.9269 3.97672 19.9277H0.0763245V18.5537H3.97672C5.33842 18.5542 6.65542 18.0667 7.68863 17.1797H0.0763245V15.8057H8.85953C9.1217 15.3767 9.32592 14.9145 9.46597 14.4316H0.0763245V13.0576H9.68961L9.69449 10.9961H0.0763245V9.97754C0.0751095 7.33213 1.12526 4.79401 2.99527 2.92285C4.86519 1.05189 7.40182 0.000481723 10.047 0ZM10.047 1.37402C5.42432 1.37418 1.64234 5.05421 1.45523 9.61816H11.0685V18.5498H14.2638C14.2638 18.5498 18.6259 15.4498 18.6261 9.97754C18.6261 5.29357 14.818 1.37402 10.047 1.37402ZM13.8146 10.9961H12.4406V9.62207H13.8146V10.9961Z" fill="#001E28"/>
</svg>
