<svg width="20" height="20" viewBox="0 0 20 20" fill="none" xmlns="http://www.w3.org/2000/svg">
<path d="M1.21454 5.28308C3.31891 1.40722 7.72189 -0.623011 12.0358 0.293823L10.86 1.45105C10.5618 1.42012 10.2614 1.40426 9.96161 1.40417C5.1936 1.40431 1.32794 5.26995 1.32782 10.038C1.32782 14.8061 5.19352 18.6716 9.96161 18.6718C12.4075 18.6713 14.7384 17.6334 16.3757 15.8163C18.0129 13.9991 18.8031 11.5733 18.5495 9.1405L19.7057 7.96375C20.6226 12.2777 18.5933 16.6816 14.7175 18.786C10.8417 20.8903 6.04307 20.1944 2.9245 17.076C-0.194046 13.9575 -0.889794 9.15895 1.21454 5.28308ZM8.92938 6.42468C7.29587 6.90863 6.17655 8.34417 6.17645 10.038C6.17982 12.1269 7.87269 13.8195 9.96161 13.8221C11.6555 13.8221 13.0942 12.7046 13.5759 11.0741L14.9489 11.0731C14.4336 13.4441 12.3946 15.1512 9.96259 15.1512C7.1391 15.1487 4.85103 12.8604 4.84833 10.037C4.84833 7.60493 6.55534 5.56593 8.92938 5.05066V6.42468ZM16.489 3.5116H19.9235V4.88562L15.8015 9.00769H12.3669L10.3054 11.0682H8.93134V9.69421L10.9929 7.63367V4.19812L15.1149 0.0760498H16.4802L16.489 3.5116ZM12.3669 4.88562V7.63367H15.1149L17.863 4.88562H15.1149V2.13757L12.3669 4.88562Z" fill="#001E28"/>
</svg>
