<svg width="20" height="20" viewBox="0 0 20 20" fill="none" xmlns="http://www.w3.org/2000/svg">
<path d="M1.37891 0.000793457V13.1033H18.6211V0.000793457H20V20.0008H18.6211V14.4832H1.37891V20.0008H0V0.000793457H1.37891ZM5.57715 8.61407C4.20715 3.73707 9.06905 -1.13481 13.9561 0.234192C13.9749 0.241256 14.2729 0.351216 14.2998 0.360168L14.4248 0.703918C15.7808 5.5409 10.9999 10.4478 6.04492 9.0838C6.02897 9.07782 5.72967 8.96838 5.70215 8.95782L5.57715 8.61407ZM7.0498 5.12189C6.6238 6.29389 6.71657 7.33443 6.80957 7.84943C7.11157 7.90243 7.59485 7.957 8.17285 7.909C8.64783 7.86899 9.10406 7.77112 9.54004 7.61212L7.0498 5.12189ZM9.18359 2.3797C8.64368 2.75964 8.09368 3.31165 7.72168 3.84357L10.8164 6.93927C11.3624 6.55327 11.8943 6.02238 12.2803 5.47638L9.18359 2.3797ZM13.1895 1.46954C12.8875 1.41558 12.4057 1.36106 11.8291 1.409C11.3532 1.44799 10.8969 1.54791 10.4609 1.70587L12.9541 4.19806C13.1121 3.76308 13.211 3.30685 13.251 2.83087C13.299 2.25495 13.2434 1.77251 13.1895 1.46954Z" fill="#001E28"/>
</svg>
