<svg width="20" height="20" viewBox="0 0 20 20" fill="none" xmlns="http://www.w3.org/2000/svg">
<path d="M18.9172 0L20.0002 1.08691V3.06934L11.1858 11.9004L5.92892 15.0586L2.47873 18.4609L3.04416 19.0264L2.06857 20L0.000213623 17.9326L0.974823 16.9561L1.50412 17.4863L4.95334 14.082L8.11252 8.8252L16.9416 0H18.9172ZM9.20724 9.68164L7.51584 12.4951L10.3303 10.8047L18.632 2.50195L18.6252 1.66309L18.343 1.38086L17.51 1.37793L9.20724 9.68164ZM3.10373 0C4.81439 0.000225423 6.20701 1.3919 6.20724 3.10156C6.20724 4.81142 4.81454 6.2029 3.10373 6.20312C1.39273 6.20312 0.000213623 4.81156 0.000213623 3.10156C0.000451017 1.39176 1.39288 0 3.10373 0ZM3.10373 1.38086C2.15388 1.38086 1.38131 2.15276 1.38107 3.10156C1.38107 4.04956 2.15373 4.82227 3.10373 4.82227C4.05354 4.82204 4.82639 4.04942 4.82639 3.10156C4.82615 2.1529 4.05339 1.38108 3.10373 1.38086Z" fill="#001E28"/>
</svg>
