<svg width="20" height="20" viewBox="0 0 20 20" fill="none" xmlns="http://www.w3.org/2000/svg">
<path d="M20.0004 19.0571V19.9995H19.0102L12.3657 13.3344L13.3344 12.3686L20.0004 19.0571ZM5.46234 0.000427246C7.71034 0.000427246 9.73037 1.39083 10.5444 3.44183H20.0004V4.80316H10.0551L9.39789 4.31C8.8968 2.57514 7.27825 1.36273 5.46234 1.36273C3.20538 1.36278 1.36957 3.19191 1.36957 5.43988C1.36977 7.2487 2.58667 8.85789 4.32953 9.35785L4.82465 10.0112V19.9575H3.45551V10.5004C1.39764 9.68748 0.000615827 7.6767 0.000427246 5.43988C0.000427246 2.43991 2.45038 0.00047358 5.46234 0.000427246ZM9.43011 6.2514C11.207 6.2514 12.6536 7.6925 12.6537 9.46039C12.6537 11.2304 11.2071 12.6694 9.43011 12.6694C7.65312 12.6694 6.20746 11.2304 6.20746 9.46039C6.20759 7.6925 7.6532 6.25141 9.43011 6.2514ZM9.43011 7.61566C8.4082 7.61567 7.57673 8.4435 7.5766 9.46039C7.5766 10.4784 8.40812 11.308 9.43011 11.308C10.4521 11.308 11.2846 10.4784 11.2846 9.46039C11.2845 8.4435 10.452 7.61566 9.43011 7.61566Z" fill="#001E28"/>
</svg>
