<svg width="20" height="20" viewBox="0 0 20 20" fill="none" xmlns="http://www.w3.org/2000/svg">
<path d="M11.8708 19.9875H8.15834L1.02917 12.9042V2.95835L4.00417 0.0125122H16.0083L18.975 2.96251V12.9083L11.875 19.9917L11.8708 19.9875ZM8.45001 19.2792H11.5792L18.2625 12.6083V3.25418L15.7125 0.720846H4.29584L1.73751 3.25418V12.6083L8.45001 19.2792Z" fill="#001E28"/>
<path d="M11.275 17.9292H8.74166L3.09583 12.3167V3.81251L4.85416 2.07501H15.1583L16.9042 3.81251V12.3167L11.2792 17.9292H11.275ZM9.03749 17.2208H10.9833L16.1958 12.0208V4.10418L14.8667 2.77918H5.14583L3.80416 4.10418V12.0167L9.03749 17.2167V17.2208Z" fill="#001E28"/>
<path d="M14.2846 4.22721L6.09686 12.4149L6.59773 12.9158L14.7854 4.72808L14.2846 4.22721Z" fill="#001E28"/>
<path d="M14.7875 7.10419L7.78748 14.1042L8.28748 14.6042L14.7875 8.10419V7.10419Z" fill="#001E28"/>
<path d="M5.21252 10.8375L11.8625 4.1875H10.8584L5.21252 9.83333V10.8375Z" fill="#001E28"/>
</svg>
